<svg xmlns="http://www.w3.org/2000/svg" width="375" viewBox="0 0 375 375" height="375" version="1.0"><path fill="#FFF" d="M 52.265625 109.375 C 69.09375 80.390625 94.9375 57.265625 125.96875 43.921875 C 115.59375 61.53125 107.359375 83.828125 101.78125 109.375 L 134.15625 109.375 C 146.015625 61.890625 167.546875 31.25 187.5 31.25 C 207.453125 31.25 228.984375 61.890625 240.84375 109.375 L 273.21875 109.375 C 267.640625 83.828125 259.40625 61.53125 249.03125 43.921875 C 280.0625 57.265625 305.90625 80.390625 322.734375 109.375 L 357.734375 109.375 C 328.03125 44.9375 262.984375 0 187.5 0 C 112.015625 0 46.96875 44.9375 17.265625 109.375 Z M 52.265625 109.375"/><path fill="#FFF" d="M 322.734375 265.625 C 305.90625 294.609375 280.0625 317.734375 249.03125 331.078125 C 259.40625 313.46875 267.640625 291.171875 273.21875 265.625 L 240.84375 265.625 C 228.984375 313.109375 207.46875 343.75 187.5 343.75 C 167.53125 343.75 146.015625 313.109375 134.15625 265.625 L 101.78125 265.625 C 107.359375 291.171875 115.59375 313.46875 125.96875 331.078125 C 94.9375 317.734375 69.09375 294.609375 52.265625 265.625 L 17.265625 265.625 C 46.96875 330.0625 112.015625 375 187.5 375 C 262.984375 375 328.03125 330.0625 357.734375 265.625 Z M 322.734375 265.625"/><path fill="#FFF" d="M 250 140.625 L 226.5625 234.375 L 204.4375 234.375 C 204.4375 234.375 188.46875 177.21875 188.296875 173.34375 L 188.046875 173.34375 C 187.6875 177.609375 171.359375 234.375 171.359375 234.375 L 148.296875 234.375 L 125 140.625 L 146.828125 140.625 C 146.828125 140.625 160.25 196.015625 160.484375 200.5 L 160.859375 200.5 C 161.015625 197.140625 178.71875 140.625 178.71875 140.625 L 200.109375 140.625 C 200.109375 140.625 215.640625 195.96875 216.0625 200.375 L 216.3125 200.375 C 216.46875 196.921875 229.84375 140.625 229.84375 140.625 Z M 250 140.625"/><path fill="#FFF" d="M 375 140.625 L 351.5625 234.375 L 329.4375 234.375 C 329.4375 234.375 313.46875 177.21875 313.296875 173.34375 L 313.046875 173.34375 C 312.6875 177.609375 296.359375 234.375 296.359375 234.375 L 273.296875 234.375 L 250 140.625 L 271.828125 140.625 C 271.828125 140.625 285.25 196.015625 285.484375 200.5 L 285.859375 200.5 C 286.015625 197.140625 303.71875 140.625 303.71875 140.625 L 325.109375 140.625 C 325.109375 140.625 340.640625 195.96875 341.0625 200.375 L 341.3125 200.375 C 341.46875 196.921875 354.84375 140.625 354.84375 140.625 Z M 375 140.625"/><path fill="#FFF" d="M 125 140.625 L 101.5625 234.375 L 79.4375 234.375 C 79.4375 234.375 63.46875 177.21875 63.296875 173.34375 L 63.0625 173.34375 C 62.6875 177.609375 46.359375 234.375 46.359375 234.375 L 23.3125 234.375 L 0 140.625 L 21.828125 140.625 C 21.828125 140.625 35.25 196.015625 35.484375 200.5 L 35.859375 200.5 C 36.015625 197.140625 53.71875 140.625 53.71875 140.625 L 75.109375 140.625 C 75.109375 140.625 90.640625 195.96875 91.0625 200.375 L 91.3125 200.375 C 91.46875 196.921875 104.84375 140.625 104.84375 140.625 Z M 125 140.625"/></svg>